<svg version="1.1" id="Layer_1" xmlns="http://www.w3.org/2000/svg" xmlns:xlink="http://www.w3.org/1999/xlink" x="0px" y="0px"
	 width="100%" viewBox="0 0 1024 1024" enable-background="new 0 0 1024 1024" xml:space="preserve">
<path fill="#FFFFFF" opacity="1.000000" stroke="none" 
	d="
M1.000000,359.000000 
	C1.000000,239.333344 1.000000,120.166695 1.000000,1.000032 
	C342.333282,1.000021 683.666565,1.000021 1025.000000,1.000011 
	C1025.000000,342.333252 1025.000000,683.666504 1025.000000,1024.999756 
	C683.666809,1024.999878 342.333618,1024.999878 1.000205,1025.000000 
	C1.000000,803.166687 1.000000,581.333313 1.000000,359.000000 
M808.500000,128.997635 
	C579.411377,128.997635 350.322784,128.997635 121.279427,128.997635 
	C121.279427,385.306213 121.279427,641.039673 121.279427,896.719421 
	C382.627899,896.719421 643.693176,896.719421 904.716248,896.719421 
	C904.716248,640.700806 904.716248,384.968353 904.716248,128.998550 
	C872.783142,128.998550 841.141541,128.998550 808.500000,128.997635 
z"/>
<path fill="#691170" opacity="1.000000" stroke="none" 
	d="
M809.000000,128.998093 
	C841.141541,128.998550 872.783142,128.998550 904.716248,128.998550 
	C904.716248,384.968353 904.716248,640.700806 904.716248,896.719421 
	C643.693176,896.719421 382.627899,896.719421 121.279427,896.719421 
	C121.279427,641.039673 121.279427,385.306213 121.279427,128.997635 
	C350.322784,128.997635 579.411377,128.997635 809.000000,128.998093 
M348.500000,896.007874 
	C533.557434,896.007874 718.614868,896.007874 903.583008,896.007874 
	C903.583008,640.182983 903.583008,385.299347 903.583008,130.372849 
	C642.937927,130.372849 382.717010,130.372849 122.327003,130.372849 
	C122.327003,385.634674 122.327003,640.519409 122.327003,896.007568 
	C197.608322,896.007568 272.554169,896.007568 348.500000,896.007874 
z"/>
<path fill="#8E4C94" opacity="1.000000" stroke="none" 
	d="
M348.000000,896.007690 
	C272.554169,896.007568 197.608322,896.007568 122.327003,896.007568 
	C122.327003,640.519409 122.327003,385.634674 122.327003,130.372849 
	C382.717010,130.372849 642.937927,130.372849 903.583008,130.372849 
	C903.583008,385.299347 903.583008,640.182983 903.583008,896.007874 
	C718.614868,896.007874 533.557434,896.007874 348.000000,896.007690 
M260.086487,357.215668 
	C259.724976,358.406433 259.048889,359.596802 259.047363,360.788025 
	C258.993408,403.207886 258.985535,445.627838 259.082550,488.047546 
	C259.085541,489.362915 260.266663,490.675629 261.043365,492.657959 
	C260.995300,493.108765 260.947266,493.559601 260.120819,494.201050 
	C259.748322,495.385834 259.051819,496.570190 259.050201,497.755463 
	C258.993958,539.518921 258.985687,581.282532 259.082458,623.045776 
	C259.085510,624.361755 260.266388,625.674927 261.050049,627.785156 
	C261.000061,628.860168 260.950104,629.935242 260.126160,631.198425 
	C258.748657,635.561401 257.369324,639.924438 261.051910,644.737549 
	C261.002594,645.495056 260.953278,646.252563 260.125122,647.199341 
	C259.932404,652.937134 259.727203,658.674744 259.604095,664.414001 
	C259.600189,664.596252 260.441254,664.796509 261.044098,665.527344 
	C261.041260,665.897034 261.038452,666.266724 261.480957,667.373291 
	C262.259766,667.580811 263.038208,667.968140 263.817383,667.969604 
	C282.525482,668.005005 301.233704,668.016357 319.941650,667.954590 
	C320.982544,667.951172 322.021179,667.281799 323.213318,666.581116 
	C323.359161,666.366699 323.554657,666.217346 324.468262,665.567505 
	C324.646759,663.606750 324.978821,661.646118 324.980774,659.685181 
	C325.012695,627.592590 325.094940,595.499451 324.897034,563.408081 
	C324.869354,558.914856 326.200470,557.836121 330.526459,557.891785 
	C348.648285,558.125000 366.775146,558.035828 384.899170,557.914246 
	C386.590668,557.902954 388.275055,556.833435 390.880585,556.065857 
	C397.027893,555.684753 403.214783,555.622925 409.315704,554.867310 
	C435.522858,551.621338 458.602020,541.934631 475.103180,520.421448 
	C493.300110,496.697479 499.168304,469.615326 494.375824,440.329468 
	C491.086945,420.231689 483.374878,401.966125 468.880310,387.163025 
	C448.874756,366.731537 424.119110,356.658081 395.885132,356.259918 
	C352.246490,355.644470 308.593750,356.019775 264.946991,356.032837 
	C263.583435,356.033234 262.220093,356.673157 260.086487,357.215668 
M611.723267,488.773468 
	C598.183533,444.605133 584.643799,400.436798 571.174927,356.499664 
	C547.523376,356.499664 524.339294,356.499664 500.782227,356.499664 
	C501.469208,358.681732 501.970215,360.419067 502.560333,362.125549 
	C511.038666,386.643768 519.567200,411.144714 528.009399,435.675323 
	C554.086548,511.448578 580.147766,587.227295 606.131165,663.032776 
	C607.156189,666.023071 608.532288,667.040527 611.767334,667.010193 
	C630.261047,666.836609 648.757263,666.941406 667.252686,666.943970 
	C679.596924,666.945740 679.581421,666.934753 683.543823,655.192078 
	C715.223083,561.308289 746.910461,467.427216 778.588196,373.542877 
	C780.485291,367.920319 782.320740,362.276978 784.219299,356.539551 
	C783.205383,356.329346 782.727966,356.144135 782.250366,356.143768 
	C762.422119,356.128784 742.593262,356.201691 722.766113,356.053833 
	C719.755188,356.031372 719.294312,357.656281 718.614868,359.842651 
	C703.129028,409.678894 687.390015,459.437592 672.155029,509.350189 
	C663.325745,538.276733 655.302429,567.449036 646.848389,596.491028 
	C646.655823,597.152588 645.649902,597.577454 645.095764,598.050903 
	C633.963745,561.637634 622.944824,525.594299 611.723267,488.773468 
z"/>
<path fill="#FEFEFE" opacity="1.000000" stroke="none" 
	d="
M260.899231,494.010406 
	C260.947266,493.559601 260.995300,493.108765 261.032532,491.859314 
	C261.029510,483.419403 261.053894,475.778076 261.042236,468.136841 
	C260.985687,431.096191 260.919434,394.055573 260.856628,357.014923 
	C262.220093,356.673157 263.583435,356.033234 264.946991,356.032837 
	C308.593750,356.019775 352.246490,355.644470 395.885132,356.259918 
	C424.119110,356.658081 448.874756,366.731537 468.880310,387.163025 
	C483.374878,401.966125 491.086945,420.231689 494.375824,440.329468 
	C499.168304,469.615326 493.300110,496.697479 475.103180,520.421448 
	C458.602020,541.934631 435.522858,551.621338 409.315704,554.867310 
	C403.214783,555.622925 397.027893,555.684753 389.959351,556.097778 
	C368.017517,556.188660 346.996887,556.247681 325.661865,556.207886 
	C324.849121,556.393494 324.350769,556.677856 323.756866,557.425476 
	C323.707458,593.970154 323.753662,630.051575 323.799835,666.132996 
	C323.554657,666.217346 323.359161,666.366699 322.663147,666.738281 
	C301.753845,666.809143 281.394745,666.722778 261.035645,666.636414 
	C261.038452,666.266724 261.041260,665.897034 261.033020,664.794800 
	C260.982574,658.378174 260.943237,652.694153 260.903931,647.010071 
	C260.953278,646.252563 261.002594,645.495056 261.037567,643.904663 
	C260.982208,639.051270 260.941162,635.030762 260.900116,631.010254 
	C260.950104,629.935242 261.000061,628.860168 261.035431,626.922852 
	C260.980286,582.043823 260.939758,538.027100 260.899231,494.010406 
M425.993561,432.261169 
	C420.958923,422.864960 413.053589,417.097595 402.322632,413.725555 
	C398.878235,413.141815 395.433807,412.558075 391.346283,411.947784 
	C390.920258,411.907318 390.494232,411.866882 389.627655,411.182678 
	C370.343750,410.837372 351.059937,410.486755 331.775818,410.152985 
	C329.160553,410.107697 326.543823,410.146759 323.776550,410.146759 
	C323.776550,441.318054 323.776550,471.973816 323.776550,502.051575 
	C346.459808,502.051575 368.820251,503.272827 390.995361,501.766296 
	C424.534698,499.487671 443.028900,462.160706 425.993561,432.261169 
z"/>
<path fill="#FEFEFF" opacity="1.000000" stroke="none" 
	d="
M611.824585,489.162170 
	C622.944824,525.594299 633.963745,561.637634 645.095764,598.050903 
	C645.649902,597.577454 646.655823,597.152588 646.848389,596.491028 
	C655.302429,567.449036 663.325745,538.276733 672.155029,509.350189 
	C687.390015,459.437592 703.129028,409.678894 718.614868,359.842651 
	C719.294312,357.656281 719.755188,356.031372 722.766113,356.053833 
	C742.593262,356.201691 762.422119,356.128784 782.250366,356.143768 
	C782.727966,356.144135 783.205383,356.329346 784.219299,356.539551 
	C782.320740,362.276978 780.485291,367.920319 778.588196,373.542877 
	C746.910461,467.427216 715.223083,561.308289 683.543823,655.192078 
	C679.581421,666.934753 679.596924,666.945740 667.252686,666.943970 
	C648.757263,666.941406 630.261047,666.836609 611.767334,667.010193 
	C608.532288,667.040527 607.156189,666.023071 606.131165,663.032776 
	C580.147766,587.227295 554.086548,511.448578 528.009399,435.675323 
	C519.567200,411.144714 511.038666,386.643768 502.560333,362.125549 
	C501.970215,360.419067 501.469208,358.681732 500.782227,356.499664 
	C524.339294,356.499664 547.523376,356.499664 571.174927,356.499664 
	C584.643799,400.436798 598.183533,444.605133 611.824585,489.162170 
z"/>
<path fill="#883D8D" opacity="1.000000" stroke="none" 
	d="
M260.471558,357.115295 
	C260.919434,394.055573 260.985687,431.096191 261.042236,468.136841 
	C261.053894,475.778076 261.029510,483.419403 260.960144,491.525116 
	C260.266663,490.675629 259.085541,489.362915 259.082550,488.047546 
	C258.985535,445.627838 258.993408,403.207886 259.047363,360.788025 
	C259.048889,359.596802 259.724976,358.406433 260.471558,357.115295 
z"/>
<path fill="#883D8D" opacity="1.000000" stroke="none" 
	d="
M260.510010,494.105713 
	C260.939758,538.027100 260.980286,582.043823 260.959473,626.525024 
	C260.266388,625.674927 259.085510,624.361755 259.082458,623.045776 
	C258.985687,581.282532 258.993958,539.518921 259.050201,497.755463 
	C259.051819,496.570190 259.748322,495.385834 260.510010,494.105713 
z"/>
<path fill="#813386" opacity="1.000000" stroke="none" 
	d="
M324.134033,665.850220 
	C323.753662,630.051575 323.707458,593.970154 324.049438,557.429016 
	C324.950500,556.748474 325.463409,556.527588 325.976288,556.306641 
	C346.996887,556.247681 368.017517,556.188660 389.500427,556.192444 
	C388.275055,556.833435 386.590668,557.902954 384.899170,557.914246 
	C366.775146,558.035828 348.648285,558.125000 330.526459,557.891785 
	C326.200470,557.836121 324.869354,558.914856 324.897034,563.408081 
	C325.094940,595.499451 325.012695,627.592590 324.980774,659.685181 
	C324.978821,661.646118 324.646759,663.606750 324.134033,665.850220 
z"/>
<path fill="#711B76" opacity="1.000000" stroke="none" 
	d="
M261.258301,667.004883 
	C281.394745,666.722778 301.753845,666.809143 322.586914,666.908936 
	C322.021179,667.281799 320.982544,667.951172 319.941650,667.954590 
	C301.233704,668.016357 282.525482,668.005005 263.817383,667.969604 
	C263.038208,667.968140 262.259766,667.580811 261.258301,667.004883 
z"/>
<path fill="#883D8D" opacity="1.000000" stroke="none" 
	d="
M260.514526,647.104736 
	C260.943237,652.694153 260.982574,658.378174 260.955170,664.525269 
	C260.441254,664.796509 259.600189,664.596252 259.604095,664.414001 
	C259.727203,658.674744 259.932404,652.937134 260.514526,647.104736 
z"/>
<path fill="#883D8D" opacity="1.000000" stroke="none" 
	d="
M260.513123,631.104370 
	C260.941162,635.030762 260.982208,639.051270 260.962402,643.530762 
	C257.369324,639.924438 258.748657,635.561401 260.513123,631.104370 
z"/>
<path fill="#8E4C94" opacity="1.000000" stroke="none" 
	d="
M402.987488,414.061676 
	C413.053589,417.097595 420.958923,422.864960 425.764221,432.826050 
	C426.203217,437.203796 425.970703,441.510986 427.733368,444.723358 
	C431.077545,450.817841 430.538727,457.212769 429.671692,463.229462 
	C428.755981,469.583771 427.315552,476.180054 421.729858,481.019501 
	C418.056702,484.201965 415.534973,488.487946 411.638489,491.834564 
	C407.224487,495.625610 402.450348,498.251038 397.399963,498.588562 
	C387.710266,499.236115 377.914825,498.120178 368.161377,498.065674 
	C362.708008,498.035156 357.254822,498.808319 351.794373,498.960602 
	C346.214264,499.116150 340.625305,498.941437 335.040222,498.936401 
	C327.863129,498.929962 325.093140,496.254364 325.013367,489.023712 
	C324.944366,482.771942 324.922058,476.517639 325.016113,470.266541 
	C325.170776,459.987488 325.373138,449.708130 325.694458,439.433258 
	C325.787598,436.454651 326.293945,433.481995 326.719757,430.522278 
	C327.409912,425.725128 327.997162,420.900085 329.000122,416.165649 
	C329.666992,413.017853 331.889008,411.752777 335.309235,411.934692 
	C343.916382,412.392578 352.593445,413.223175 361.142059,412.576721 
	C368.366608,412.030365 375.204987,411.800903 381.955933,414.769684 
	C385.399078,416.283875 388.417358,415.707001 390.068207,411.826416 
	C390.494232,411.866882 390.920258,411.907318 391.901306,412.242676 
	C395.966705,413.045593 399.477112,413.553619 402.987488,414.061676 
z"/>
<path fill="#904D95" opacity="1.000000" stroke="none" 
	d="
M389.847931,411.504547 
	C388.417358,415.707001 385.399078,416.283875 381.955933,414.769684 
	C375.204987,411.800903 368.366608,412.030365 361.142059,412.576721 
	C352.593445,413.223175 343.916382,412.392578 335.309235,411.934692 
	C331.889008,411.752777 329.666992,413.017853 329.000122,416.165649 
	C327.997162,420.900085 327.409912,425.725128 326.719757,430.522278 
	C326.293945,433.481995 325.787598,436.454651 325.694458,439.433258 
	C325.373138,449.708130 325.170776,459.987488 325.016113,470.266541 
	C324.922058,476.517639 324.944366,482.771942 325.013367,489.023712 
	C325.093140,496.254364 327.863129,498.929962 335.040222,498.936401 
	C340.625305,498.941437 346.214264,499.116150 351.794373,498.960602 
	C357.254822,498.808319 362.708008,498.035156 368.161377,498.065674 
	C377.914825,498.120178 387.710266,499.236115 397.399963,498.588562 
	C402.450348,498.251038 407.224487,495.625610 411.638489,491.834564 
	C415.534973,488.487946 418.056702,484.201965 421.729858,481.019501 
	C427.315552,476.180054 428.755981,469.583771 429.671692,463.229462 
	C430.538727,457.212769 431.077545,450.817841 427.733368,444.723358 
	C425.970703,441.510986 426.203217,437.203796 425.823975,433.170349 
	C443.028900,462.160706 424.534698,499.487671 390.995361,501.766296 
	C368.820251,503.272827 346.459808,502.051575 323.776550,502.051575 
	C323.776550,471.973816 323.776550,441.318054 323.776550,410.146759 
	C326.543823,410.146759 329.160553,410.107697 331.775818,410.152985 
	C351.059937,410.486755 370.343750,410.837372 389.847931,411.504547 
z"/>
<path fill="#904D95" opacity="1.000000" stroke="none" 
	d="
M402.655060,413.893616 
	C399.477112,413.553619 395.966705,413.045593 392.222870,412.255920 
	C395.433807,412.558075 398.878235,413.141815 402.655060,413.893616 
z"/>
<path fill="#8E4C94" opacity="1.000000" stroke="none" 
	d="
M325.661865,556.207886 
	C325.463409,556.527588 324.950500,556.748474 324.145020,556.965759 
	C324.350769,556.677856 324.849121,556.393494 325.661865,556.207886 
z"/>
</svg>